<?xml version="1.0" encoding="utf-8"?>
<svg viewBox="1244.795 -10.271 1059.924 1337.328" xmlns="http://www.w3.org/2000/svg">
  <g id="g8" transform="matrix(1.333333, 0, 0, -1.333333, 1257.119385, 1318.839966)">
    <g id="g10" transform="scale(0.1)">
      <rect x="462.176" y="-9506.155" width="6932.645" height="9258.933" style="stroke: rgb(0, 0, 0); fill: rgb(255, 255, 255);" transform="matrix(1, 0, 0, -1, 0, 0)"/>
      <path d="m 1267.97,5623.18 193.34,368.92 c 79.37,146.52 161.24,297.89 233.4,452.37 117.5,329.54 315.1,556.73 586.34,678.23 -142.69,31.36 -279.34,124.14 -415.39,288.32 l -31.8,31.95 c 0,0 -74.81,69.94 -74.81,70.09 -76.86,51.52 -169.91,99.53 -276.97,66.1 -129,-66.4 -186.28,-196.87 -241.5,-323.51 0,0 -63.6,-134.88 -63.6,-135.03 l -13.7,-33.7 c 0,0 -53.45,-146.07 -53.76,-146.96 -140.028,-353.4 -216.301,-810.16 -216.301,-1279.1 0,-73.62 1.761,-147.53 5.594,-221.46 6.343,-135.46 104.847,-327.19 170.977,-366.05 9.26,-5.9 17.8,-14.13 24.28,-23.27 -6.48,27.98 -9.42,55.96 -9.42,84.5 0,153.16 85.11,309.24 157.41,441.18 0,0 25.91,47.99 25.91,47.42" style="fill:#3c52a2;fill-opacity:1;fill-rule:nonzero;stroke:none" id="path72"/>
      <path d="m 6317.46,7630.55 c -1.91,9.29 -4.85,18.71 -4.85,27.98 0,4.14 1.91,8.4 2.19,12.68 -9.56,-10.76 -17.08,-23.87 -18.84,-37.72 7.21,-1.17 17.38,-2.63 17.38,-2.63 0,0 2.94,-0.31 4.12,-0.31" style="fill:#3c52a2;fill-opacity:1;fill-rule:nonzero;stroke:none" id="path74"/>
      <path d="m 3044.54,6796.84 c 0,4.84 -1.18,9.86 -3.83,15.45 -2.21,1.77 -12.8,12.23 -23.27,25.16 -4.27,-31.8 -8.09,-60.34 -12.51,-92.9 0.15,0.28 1.61,1.93 1.61,1.93 22.69,19.12 38,33.41 38,50.36" style="fill:#3c52a2;fill-opacity:1;fill-rule:nonzero;stroke:none" id="path76"/>
      <path d="m 1863.45,2069.44 19.15,2.38 -4.57,-18.57 c -8.98,-36.81 7.2,-82.16 27.24,-110.45 l 11.92,-17.07 -20.61,-3.53 c -18.84,-2.93 -45.94,-5.6 -62.28,9.7 -6.34,5.6 -13.27,16.52 -11.49,35.35 v -0.3 l -0.45,22.39 c -1.9,29.18 -4.55,73.92 41.09,80.1 m -7.36,-999.22 c -65.38,-4.13 -73.05,43.58 -78.49,78.63 l -9.86,39.73 -2.34,8.27 20.89,32.39 c 41.83,65.68 85.85,132.83 143.29,189.66 -27.12,83.04 -40.81,173.45 -40.81,266.5 0,144.62 31.96,295.41 94.68,433.82 40.95,72.73 87.48,146.95 147.27,198.76 -97.05,4.75 -199.53,47.42 -289.96,90.72 -45.2,36.83 -103.05,35.06 -174.49,-5.88 -17.8,-5.58 -32.82,-23.27 -48.43,-41.8 0,0 -1.17,-1.5 -1.48,-2.66 -16.03,-29.18 -32.24,-59.5 -30.63,-93.07 l 1.19,-235.58 c 6.92,-237.39 14.13,-482.99 -127.52,-693.57 -63.62,-126.05 38.42,-186.12 136.79,-243.84 44.47,-26.21 86.3,-51.23 107.06,-80.7 14.13,-20.037 49.03,-15.018 83.04,-10.3 0,0 25.32,2.34 36.52,3.22 9.42,20.93 21.36,43.3 33.28,65.7" style="fill:#3c52a2;fill-opacity:1;fill-rule:nonzero;stroke:none" id="path78"/>
      <path d="m 1865.51,1195.08 c -3.54,-4.11 -4.87,-9.14 -4.87,-15.02 0,-9.42 3.83,-21.2 9.14,-36.23 3.97,-10.91 7.21,-22.98 8.53,-34.46 18.27,30.03 39.19,59.78 64.96,87.78 1.46,10.01 5.88,43.28 5.88,43.28 2.8,10.9 4.86,21.2 5.43,30.92 -35.46,-21.2 -65.21,-41.83 -89.07,-76.27" style="fill:#3c52a2;fill-opacity:1;fill-rule:nonzero;stroke:none" id="path80"/>
      <path d="m 5968.79,7946.11 c 0,29.15 4.99,60.22 9.99,90.85 l 9.14,57.72 36.38,-34.01 -1.64,-7.2 c -2.5,-11.07 -3.39,-21.37 -3.39,-31.68 0,-14.73 1.62,-28.7 3.7,-43.59 0.89,-7.21 1.17,-14.57 1.61,-22.21 17.08,37.1 29.02,75.38 29.02,116.47 0,47.99 -13.85,99.67 -36.98,154.32 -38.72,-54.94 -78.91,-125.46 -78.91,-198.64 0,-21.81 3.52,-43.3 11.48,-65.08 0,0 10.31,-11.19 20.17,-21.97 0,1.65 -0.57,3.1 -0.57,5.02" style="fill:#3c52a2;fill-opacity:1;fill-rule:nonzero;stroke:none" id="path82"/>
      <path d="m 6048.58,7584.9 c 26.22,11.92 54.77,11.2 82.62,8.7 13.09,-1.17 25.33,-1.76 37.4,-1.32 -56.71,25.63 -123.69,65.07 -165.95,133.83 l -1.33,2.21 c 0,0 -2.37,17.98 -4.43,31.68 -20.61,-30.95 -51.81,-55.67 -70.08,-69.67 l -10.75,-8.25 c -11.05,-10.75 -44.91,-25.45 -84.52,-42.1 l -15.75,-6.78 -12.07,-5.88 c -16.06,-7.96 -40.08,-17.67 -66.42,-25.34 49.92,-9.26 97.18,-10.14 151.96,-10.74 0,0 158.43,-6.34 159.32,-6.34" style="fill:#3c52a2;fill-opacity:1;fill-rule:nonzero;stroke:none" id="path84"/>
      <path d="m 3153.8,6800.06 c 0,0 2.35,4.14 4.12,7.96 -14.13,-19.44 -29.74,-40.49 -28.86,-38.72 -20.77,-55.51 -66.26,-77.32 -110.44,-98.37 -39.02,-18.84 -75.83,-36.67 -95.41,-75.1 -3.38,-9.55 -4.57,-35.62 -4.57,-50.65 0,-3.38 0.15,-5.02 0.31,-6.77 5.43,4.7 17.67,15.6 17.67,15.6 44,37.7 146.8,126.21 190.53,192.75 l 26.65,53.3" style="fill:#3c52a2;fill-opacity:1;fill-rule:nonzero;stroke:none" id="path86"/>
      <path d="m 6528.61,7871.74 -97.78,1.48 20.34,71.41 8.84,0.89 c 90.85,8.85 224.69,-1.61 341.33,-26.65 l 0.73,-25.32 c -92.91,-25.92 -180.68,-23.87 -273.46,-21.81 m 175.37,-446.02 -1.9,-33.13 -0.75,-15.89 -13.09,0.88 c -61.39,5.01 -112.94,37.39 -115.15,38.88 l -12.52,8.09 9.57,11.34 c 9.14,10.76 12.96,22.96 12.52,38.89 -2.5,15.89 -9.29,27.81 -20.92,36.07 -24.44,17.22 -61.99,15.45 -91.42,11.47 3.82,-6.04 7.94,-12.65 7.94,-12.65 11.63,-21.06 21.8,-39.03 44.75,-51.1 l 3.1,-1.62 1.93,-2.94 c 12.2,-20.17 32.38,-52 32.38,-83.21 0,-8.68 -5.29,-16.78 -8.99,-25.18 18.71,-6.77 31.23,-20.01 40.21,-34.3 l 3.38,-5.31 c 0,0 0,-5.43 0,-6.17 0,-50.66 -21.65,-82.31 -56.54,-114.86 6.92,-0.14 17.53,-2.35 21.64,-14.73 l 1.33,-5.16 -2.21,-4.7 c 0,0 -105.71,-230 -107.04,-232.06 -69.22,-96.76 -90.43,-126.5 -99.7,-136.37 0.29,0.16 1.18,0.74 1.18,0.74 -20.3,-30.92 -46.66,-51.38 -74.22,-72.89 0,0 -5.29,-4.12 -7.78,-6.18 -7.09,-13.39 -132.54,-247.82 -132.25,-246.93 l -84.06,-197.19 c -110.73,-265.78 -225.44,-540.6 -429.84,-760.6 -22.82,-17.39 -38.58,-42.71 -55.51,-69.79 -25.63,-41.54 -52.43,-83.65 -105.57,-98.07 l 11.48,-3.84 -48.44,-9.71 c -25.47,-5.32 -41.68,-13.25 -53.16,-23.56 3.38,-7.67 8.54,-18.27 8.54,-18.27 l -56.55,8.55 c -74.95,10.89 -152.24,22.08 -213.5,63.59 -50.23,9.14 -93.95,38.31 -135.77,67.17 0,0 -74.51,45.65 -75.99,46.53 -43.72,29.44 -112.94,63 -186.27,98.66 -142.82,69.2 -302.16,146.66 -380.79,237.36 3.26,-37.4 6.49,-80.1 6.49,-80.1 0,0 11.18,-154.03 11.18,-161.68 v -0.3 c 15.31,-36.82 21.66,-73.93 21.66,-109.84 0,-90.41 -40.36,-177.58 -84.81,-255.92 l -22.25,-21.2 C 4141.85,5059.8 4013.3,4936.99 3953.08,4763.82 l -33.44,-49.18 c -87.89,-128.68 -185.68,-271.83 -185.68,-420.54 0,-26.8 3.25,-53.61 10.01,-80.69 l 1.62,-5.89 c 4.58,-18.26 8.84,-34.17 8.84,-49.19 0,-18.25 -7.96,-35.62 -27.37,-54.77 0,-2.94 0.28,-6.18 0.28,-9.43 0,-31.5 -4.57,-69.19 -8.69,-103.36 0,0 -1.77,-14.73 -1.77,-15.32 -18.55,-106.04 -98.36,-148.71 -175.53,-189.68 -60.94,-32.67 -118.53,-63.3 -147.84,-123.08 l -10.59,-21.79 -32.53,53.9 c 0,0 0,6.76 0,8.23 0,106.89 51.66,208.81 136.19,267.7 l 18.99,11.18 c 52.88,30.95 118.54,69.52 127.1,134.6 7.49,64.2 9.86,127.81 9.86,190.83 0,55.06 -1.92,109.56 -3.54,163.18 l -0.88,27.37 0.57,4.43 32.12,79.2 c 0,0 18.26,51.24 18.84,52.73 80.4,148.12 181.57,297.74 317.48,469.41 35.63,55.67 85.39,99.55 133.55,142.26 71.26,63.03 138.4,123.08 160.94,216.45 -1.33,6.2 -19.88,88.36 -19.88,88.36 -18.84,79.5 -30.63,131.05 -30.63,151.07 0,1.48 0,2.36 0.15,3.53 1.33,13.86 2.36,41.22 2.36,73.94 0,49.16 -2.07,110.73 -7.22,156.73 -20.61,87.46 -30.92,170.53 -40.62,250.78 -14.45,116.78 -28.29,227.35 -71,348.54 l -26.8,100.42 c -7.21,34.91 -13.82,67.87 -27.38,98.35 l -5.16,11.79 11.64,5.3 c 0,0 6.92,3.23 7.51,3.1 0,0 0.3,0.42 0.42,0.42 -3.66,10.17 -12.36,32.4 -12.36,32.4 l -40.49,117.08 c 29.59,-272.7 44.77,-556.46 44.77,-860.53 0,-126.94 -2.66,-257.33 -7.66,-391.92 l -16.49,-74.8 c -21.94,-109.84 -47.27,-233.82 -165.52,-282.4 -2.94,-3.26 -73.75,-83.07 -73.75,-83.07 -123.4,-139.59 -250.77,-283.9 -405.97,-400.81 -29.61,-34.16 -64.64,-63.9 -98.66,-92.48 -77.75,-65.67 -151.24,-127.8 -167.43,-241.49 -2.21,-15.9 -2.94,-26.8 -2.94,-34.18 0,-10.87 1.48,-14.12 1.92,-15.28 4.72,0.28 15.31,6.18 32.38,17.95 52.72,37.11 105.29,6.2 125.74,-22.07 14.6,-19.75 11.22,-33.28 3.1,-39.77 -15.75,-12.07 -35.33,-0.89 -49.62,7.36 l -13.39,7.06 c -12.07,2.07 -52.43,-3.24 -78.48,-51.82 -10.17,-18.86 -43.3,-37.71 -81.14,-36.22 -24,0.58 -68.18,11.47 -95.11,72.73 -3.7,8.25 -34.91,83.93 7.49,143.71 140.34,197.62 328.23,346.63 527.16,504.5 0,0 136.05,108.96 134.15,107.19 29.01,35.94 64.05,64.8 97.62,92.77 34.89,28.57 70.98,58.61 98.21,93.95 77.91,156.67 92.33,314.81 107.64,482.37 0,0 11.94,120.1 12.23,121.86 22.53,85.57 28.28,194.21 31.95,258.86 l 0.89,17.53 c 3.23,59.05 3.97,351.48 -7.81,435.56 6.32,35.78 1.17,113.54 -3.39,182.01 -6.04,93.79 -8.98,147.97 0.89,166.82 l 16.19,30.65 8.1,-33.73 c 0,0 3.69,-14.73 7.36,-29.74 l 24.59,3.22 c 0,0 10.61,1.2 10.75,1.2 0.44,0.57 8.55,10.88 8.55,10.88 l 112.93,-79.94 c 34.16,-26.66 69.37,-54.06 111.64,-78.94 31.04,-39.32 72.73,-65.81 116.77,-93.94 49.9,-31.8 101.72,-65.24 137.37,-116.76 132.83,-127.23 395.8,-353.41 564.84,-457.82 l 48.9,-41.5 c 17.52,-17.25 32.69,-30.35 55.65,-38.75 221.17,219.85 447.93,458.84 587.82,752.16 6.18,13.84 8.84,26.52 8.84,38.72 0,35.65 -22.97,65.37 -48.45,98.52 -19.88,25.77 -39.9,52.71 -50.05,84.06 -1.48,2.22 -78.48,103.68 -78.48,103.68 -60.97,83.64 -118.25,162.86 -203.66,216.6 l -12.66,8.24 9.56,11.2 c 2.66,3.25 12.96,12.36 36.67,2.5 0,0 21.36,-15.18 30.34,-21.5 30.48,9.86 65.08,-16.35 89.37,-36.8 55.09,-96.31 162.88,-232.08 234,-321.75 43.44,-54.63 66.39,-83.77 72.13,-95.12 29.31,-57.88 -48.86,-225.89 -84.52,-296.25 -70.81,-116.65 -168,-215.9 -261.79,-311.9 -91.75,-94.1 -186.44,-190.99 -255.63,-304.37 l -53.46,-63.73 c -3.38,-5.75 -13.84,-23.37 -83.35,14.26 l -117.5,107.35 c -131.05,120.01 -294.2,269.62 -400.82,358.87 -98.06,52.84 -181.26,126.02 -261.8,197.31 -66.4,58.29 -135.48,117.5 -211.15,165.19 51.68,-215.87 95.27,-417.28 132.52,-611.65 9.86,-28.58 10.45,-59.94 10.45,-90.57 v -16.95 c 0,-53.74 2.35,-103.51 53.02,-136.64 248.71,-199.88 725.49,-452.56 1062.98,-563.3 l 7.52,-2.05 2.06,5.59 c 37.4,91 96.31,172.56 153.44,251.2 44.91,62.14 91.44,126.32 127.96,196.72 140.18,166.33 240.9,430.19 322.04,642.54 50.64,132.95 91.13,237.8 129.72,291.85 -2.65,2.63 -14.72,14.86 -15.9,15.9 l -14.88,15.46 -19,13.41 20.48,6.31 c 0,0 36.36,11.36 37.83,11.36 49.33,-3.83 82.76,37.39 118.24,80.98 0,0 56.11,59.93 54.04,57.85 24.44,29.75 41.98,64.64 59.06,98.52 22.97,45.93 47.85,92.63 89.67,129.58 l -40.49,-13.12 c -49.78,-17.35 -101.47,-35.18 -157.7,-39.74 l -8.41,24 60.97,27.53 c 22.23,7.53 43.15,14.57 59.34,27.09 l 38.59,36.38 c 19.13,15.46 40.78,33.13 40.78,47.7 v 0.6 c -0.28,7.8 -7.52,15.3 -15.33,21.65 -15.45,-12.39 -207.45,-166.55 -207.45,-166.55 0,0 -3.7,3.99 -5.89,6.63 -0.6,0 -34.33,-11.18 -34.33,-11.18 l 17.83,30.03 c 14.42,23.86 39.17,44.33 60.82,62.28 0,0 5,4.42 7.05,6.48 -19.85,-4.4 -40.18,-8.83 -40.18,-8.83 0,0 -147.85,-35.94 -151.67,-36.51 -45.22,-0.76 -78.35,-2.8 -116.77,-8.4 2.64,-2.78 19,-19.59 19,-19.59 l -4.57,5.89 c 25.63,-18.71 21.34,-40.04 18.27,-48.3 -8.13,-21.2 -34.33,-36.66 -58.77,-34.29 -19,1.76 -32.11,15.45 -38.43,34.75 -74.67,24.74 -139.59,76.99 -202.18,127.95 -72.89,59.2 -141.94,115.44 -221.75,126.34 l -25.77,3.38 18.11,18.56 c 22.09,22.98 58.45,19.44 88.64,16.06 -20.16,19.56 -38.72,40.33 -55.95,60.94 -46.82,57.44 -87.33,106.63 -168.9,110.89 -9.85,2.94 -42.1,13.53 -42.1,35.03 v 1.04 c 1.17,20.48 29.44,27.69 55.51,31.8 201.58,6.64 356.5,20.33 514.33,134.88 l 16.22,21.81 c 7.78,12.8 19.56,25.77 35.47,32.68 -3.98,4.72 -8.7,9.87 -8.7,9.87 -37.96,41.97 -77.29,85.09 -82.3,149.02 -0.45,6.76 -0.74,13.55 -0.74,20.31 0,87.03 39.32,158.3 78.49,217.2 48.3,70.84 53.29,239.58 53.45,241.49 l 25.76,2.22 3.39,-15.93 c 0,0 17.98,-96.29 17.83,-94.22 8.97,-45.49 25.31,-76.28 41.22,-105.74 17.09,-32.09 32.99,-62.13 37.86,-104.54 7.49,-30.48 11.48,-60.95 11.48,-90.26 0,-73.19 -23.11,-141.66 -67.45,-194.81 l -22.52,-17.09 c -9.57,-4.7 -11.34,-5.88 -11.34,-9.11 0,-0.31 0.13,-0.75 0.29,-1.19 33.28,-93.07 121.33,-146.96 188.77,-180.25 8.69,9.58 38.88,42.42 38.88,42.42 19.28,23.55 39.31,48.14 69.35,67.89 1.49,0.29 16.63,3.52 26.96,-6.06 39.61,-22.66 43.13,-64.17 46.22,-100.71 1.93,-23.26 4.58,-44.47 14.58,-60.51 0.88,0 2.65,0 2.65,0 0,0 25.62,1.47 21.94,0 58.47,33.13 149.61,23.28 199.83,-4.57 62.87,-30.76 62.72,-93.22 62.56,-143.13 0,-0.14 0.31,-26.93 0,-30.19 M 6464.57,807.813 c -32.41,-121.344 -140.32,-122.524 -235.46,-123.102 -37.97,-0.309 -73.91,-0.59 -106.02,-8.551 -90.26,-4.711 -389.76,16.813 -458.39,45.66 -118.09,48.602 -246.21,46.512 -381.97,44.461 -106.9,-1.761 -217.2,-2.949 -324.07,22.078 -3.26,-3.808 -11.07,-12.07 -11.07,-12.07 -5.74,-8.527 -13.53,-17.059 -25.03,-21.797 -36.07,-56.82 -98.06,-75.09 -157.99,-91.851 -40.34,-11.2 -82.03,-22.989 -119.14,-48.301 -142.09,-51.258 -295.68,-42.11 -444.54,-33.02 0,0 -96.88,5.621 -98.37,5.621 -256.35,35.641 -530.83,93.649 -812.94,154.61 -61.42,-11.192 -126.35,-7.082 -189.38,-2.371 -56.68,3.84 -110.44,7.672 -162.41,0.883 -208.37,-13.243 -418.49,-47.981 -622.88,-81.262 -152.4,-12.071 -327.17,-17.379 -469.28,70.668 l -36.07,22.39 42.26,1.77 c 355.01,15.902 645.83,41.223 909.55,77.152 -127.2,12.078 -265.49,19.141 -370.76,24.149 l -2.06,25.91 c 362.52,81.871 741.84,19.43 1108.48,-40.938 214.25,-35.351 435.57,-71.851 652.03,-79.781 l 76.56,3.211 c 198.64,8.258 403.63,16.789 592.85,67.16 5.14,39.16 15.9,80.977 26.79,121.629 15.02,55.649 30.49,112.499 30.49,164.009 0,12.7 -1.05,25.05 -3.1,37.13 -9.43,192.59 -81.43,379.59 -150.94,560.73 -35.47,92.77 -72.58,188.76 -100.71,285.07 l -3.24,10.9 31.06,14.44 6.04,-9.75 c 148.72,-230.88 309.68,-499.46 351.94,-770.98 17.51,2.36 40.33,3.84 59.18,-4.71 98.97,-33.87 176.12,32.11 250.76,96 33.6,28.56 65.24,55.66 101.02,75.4 59.94,19.73 133.27,42.11 199.81,5.01 4.59,8.53 10.91,15.31 16.35,18.83 7.23,5.31 9.57,7.36 9.57,10.62 0,0.58 -0.13,1.46 -0.44,2.34 -12.21,40.65 -38.12,76.29 -63.31,111.04 -33.71,46.54 -68.6,94.53 -70.69,150.79 -46.08,114.26 -51.39,236.19 -56.52,354.27 l -7.39,128.41 25.64,4.4 35.33,-164.31 c 0,0 32.85,-152.27 35.63,-164.63 10.61,18.24 28.13,47.7 28.28,47.7 48.59,136.05 88.8,277.73 127.37,414.95 48.74,172 99.25,349.86 166.11,514.21 0,0 65.66,283.89 66.41,285.93 l 98.21,202.35 c 0,0 97.91,200.25 97.17,199.07 l 51.56,135.77 c 34.9,82.16 67.71,159.92 67.71,255.04 v 3.81 c -13.82,34.74 -16.03,78.65 -16.03,117.21 0,5.91 0.14,26.53 0.14,31.53 0,22.37 -0.58,41.81 -4.72,50.63 -3.98,8.85 -5.44,15.63 -5.44,20.93 0,11.48 6.77,16.49 10.6,17.96 13.71,6.47 31.67,-5.29 38.72,-19.74 l 7.22,-37.67 c 0,0 0.3,-4.75 -1.6,-0.32 18.53,-25.32 24.27,-60.66 24.27,-100.42 0,-32.08 -3.82,-67.14 -7.35,-101.6 0,0 -6.04,-66.26 -6.33,-68.32 -101.16,-477.09 -254.74,-911.78 -453.67,-1417.42 l -42.26,-157.26 c -16.35,-70.68 -33.13,-144.02 -65.09,-213.81 l -89.39,-289.5 -1.61,-1.75 c -19.29,-22.71 -32.56,-28.3 -41.67,-29.47 55.35,-141.95 139.28,-267.42 238.25,-353.97 l 2.78,-2.66 1.18,-3.24 c 0.88,-3.84 1.63,-8.27 1.63,-13.26 0,-9.41 -2.5,-20.32 -9.29,-27.37 -3.23,-3.26 -7.8,-3.86 -11.92,-5.32 -4.7,-8.24 -8.24,-16.49 -8.24,-24.15 0,-3.82 0.6,-7.35 1.76,-10.9 5.59,-19.13 26.81,-37.99 59.5,-53.58 34.44,-16.21 58,-36.83 88.35,-63.03 l 37.1,-31.23 c 54.62,-44.75 129.89,-83.04 182.3,-103.96 l 76.56,-23.84 c 47.57,-12.668 101.16,-26.809 148.89,-53.899 l 17.35,-9.711 -15.9,-12.078 c -58.74,-44.781 -132.08,-31.222 -203.06,-18.25 l -88.33,12.367 -2.81,1.77 c -52.56,36.781 -99.98,81.571 -146.23,124.561 -68.18,64.21 -138.55,130.46 -227.34,170.81 -25.91,15.04 -44.91,38.86 -63.03,61.85 -15.61,19.44 -31.51,35.63 -49.63,46.8 0,-0.28 3.83,-19.12 3.83,-19.12 l -17.51,1.78 c -64.65,6.17 -121.19,-31.84 -180.97,-71.88 -47.7,-32.1 -96.88,-65.09 -149.01,-73.61 -81.87,-28.87 -187.89,-19.47 -264.17,18.83 4.43,-41.51 8.69,-81.57 8.69,-121.62 0,-40.92 -4.57,-81.858 -18.12,-122.21 -2.51,-26.218 -11.93,-49.5 -22.68,-65.097 21.2,-20.903 44.92,-15.024 80.41,-1.743 0,0 58.17,14.422 54.47,13.821 187.45,58.019 410.84,-9.719 562.66,-65.981 134.12,-51.808 268.72,-54.179 399.18,-55.941 0,0 161.1,-5.879 162.44,-5.879 9.55,1.762 45.64,10.012 45.64,10.012 17.96,1.738 36.64,3.508 49.31,10.027 40.06,28.262 74.95,99.211 77.89,113.07 2.08,10.293 8.85,13.84 12.52,15.321 13.27,4.402 26.65,-7.36 36.38,-16.508 l 2.78,-2.352 3.7,-2.66 1.02,-2.34 c 11.63,-23.871 4.86,-54.191 -4.11,-82.757 M 1729.9,902.039 c -32.84,11.512 -66.7,23.274 -96.76,40.941 l -2.34,1.77 -1.48,2.07 c -23.55,31.789 -56.84,55.37 -88.92,78.03 -47.43,33.29 -96.17,67.45 -117.09,127.5 -31.35,48.02 -42.7,94.56 -42.7,140.5 0,59.79 19.31,118.68 39.32,179.63 21.21,64.23 42.86,130.18 42.86,201.73 0,8.54 -0.31,17.1 -1.04,26.24 l 1.17,138.99 v 18.85 c 0,162.86 1.92,330.13 57.88,483.27 46.82,111.92 161.39,193.21 283.16,197.61 59.34,-17.96 109.7,-50.07 158.59,-80.99 56.39,-35.62 109.56,-69.51 175.81,-83.63 l 6.48,-4.4 16.95,-26.81 c 0,0 0.29,-0.9 0.29,-1.21 42.41,28.58 91.13,45.98 149.01,43.32 l 15.33,-0.61 -0.76,0.32 -2.34,2.06 c -58.03,60.66 -133.87,127.52 -207.18,192.01 -93.95,82.74 -174.93,154.01 -203.95,198.78 -9.57,14.14 -79.37,91.29 -120.9,137.24 0,0 -21.34,23.57 -21.5,23.85 -163.45,194.38 -267.84,446.74 -319.83,771.89 l 21.66,5 c -12.22,5.9 -21.66,13.27 -26.36,22.68 -10.16,19.74 -15.18,40.34 -15.18,62.15 0,37.69 15.48,78.61 45.96,121.61 41.08,58.31 95.4,83.06 155.93,67.44 32.84,-19.14 36.38,-52.99 25.32,-78.63 -10.59,-23.85 -41.95,-51.25 -75.52,-45.34 -34.32,-17.08 -74.06,-45.07 -80.85,-83.63 3.54,-10.9 7.36,-17.09 35.05,-20.65 35.91,-4.38 116.04,28.89 208.79,67.45 157.7,65.38 354.13,146.97 515.81,127.24 l 55.82,-21.8 25.77,-11.19 -4.42,-25.32 h -13.54 c -83.06,-0.89 -161.24,-1.79 -233.69,-29.46 -101.45,-67.72 -213.96,-120.74 -335.73,-158.43 -68.92,-12.66 -211.73,-24.73 -278.01,3.24 120.74,-381.97 313.35,-662.92 587.67,-857.59 168.76,-96.02 325.73,-211.75 477.4,-323.95 98.94,-72.74 201.29,-148.14 304.65,-216.76 171.84,-97.76 327.64,-220.86 478.42,-340.44 168.59,-132.79 342.65,-270.94 538.64,-371.95 l 32.09,-16.49 -35.05,-7.96 c -44.32,-10.01 -94.81,-5.58 -141.36,8.55 -1.31,-4.72 -2.5,-9.72 -2.5,-9.72 0,0 -22.83,11.76 -28.42,15.03 -10.75,-5.31 -156.53,-73.62 -163.14,-76.88 -15.02,-18.56 -19.29,-43.88 -19.29,-65.07 0,-12.98 1.62,-24.16 2.63,-30.94 40.51,-107.19 108.39,-185.22 181.44,-209.67 l 21.05,-6.78 -16.21,-15.31 c 0,0 -2.78,-2.34 -3.23,-2.65 -0.73,-1.18 -18.26,-27.7 -18.26,-27.7 l -7.37,0.31 c -76.41,4.12 -130.17,66.26 -177.28,121.04 0,0 -28.86,32.69 -30.05,34.17 -27.09,39.17 -34.3,79.79 -34.3,121.34 0,22.66 2.06,45.91 4.11,69.18 0,0 3.41,40.66 3.41,41.26 6.17,56.51 41.95,88.35 77.45,110.44 -5.31,3.81 -11.19,8.23 -11.19,8.23 -15.78,12.96 -30.79,25.03 -51.84,27.96 -67.74,16.79 -129,-60.06 -151.82,-93.94 l -22.96,-33.26 -1.19,40.62 c 0,1.77 0,3.86 0,5.9 0,58.02 22.68,132.82 70.68,177.28 -202.76,195.25 -383,317.77 -562.79,381.7 -125.75,10 -244.44,10.58 -319.24,-90.73 -21.21,-16.78 -32.24,-38.28 -43.14,-59.2 -9.86,-19.13 -19.29,-37.08 -35.18,-48.28 l -7.66,-5.31 -46.84,33.87 -0.28,6.19 c -0.16,1.77 -0.16,3.54 -0.16,5 0,25.92 14,45.07 26.36,61.86 0,0 20.32,36.22 21.94,40.34 66.41,102.19 193.2,131.64 295.23,155.19 0,0 1.2,0.29 1.33,0.29 -8.38,10.9 -17.51,22.98 -17.51,23.86 -0.6,0 -85.85,43.3 -85.85,43.3 0,0 -104.41,55.07 -108.24,57.12 -19.43,7.66 -36.95,2.06 -57.12,-4.41 -19.44,-6.17 -41.38,-12.36 -65.83,-6.17 l -32.25,-38 h -5.88 c -46.69,-1.48 -70.84,-35.05 -96.31,-70.99 l -33.42,-42.11 c -192.16,-198.79 -153.72,-491.82 -102.63,-750.08 22.22,-82.18 27.97,-132.52 22.53,-199.97 -3.54,-36.22 -31.08,-82.17 -57.72,-126.65 l -10.3,-17.64 c -34.33,-58.04 -65.69,-81 -93.38,-101.03 -25.6,-18.55 -45.49,-33.28 -64.77,-74.5 -15.77,-21.211 -15.17,-46.25 -14.57,-72.73 0.88,-27.11 1.45,-55.079 -16.95,-78.329 l -9.73,-11.8 -10.15,11.191 c -10.46,11.199 -13.11,23.859 -13.11,35.918 0,7.082 0.88,13.84 1.63,20.313 0,0 0.44,4.148 0.89,8.269 -12.83,5 -69.95,27.957 -69.95,27.957 m 17.51,3192.091 10.62,-23.26 c 10.74,-24.44 48.43,-39.47 75.83,-50.66 23.71,-9.44 39.29,-15.6 44.17,-27.99 l 1.76,-10.31 -2.36,-5.27 c -12.52,-26.23 -56.4,-45.08 -123.09,-24.75 -21.35,6.77 -131.5,79.21 -131.5,245.61 0,5.88 0.15,12.07 0.44,17.96 -33.7,49.18 -40.78,111.03 -40.78,160.8 0,19.73 1.17,37.12 1.9,51.54 l 0.6,13.82 c 1.92,43.6 60.66,118.11 84.08,134.59 4.87,3.56 12.08,7.67 19.88,5.31 10.15,-2.94 12.96,-12.35 12.96,-22.37 0,-8.85 -2.08,-18.26 -3.38,-24.75 -4.87,-21.78 -8.85,-33.57 -12.38,-40.34 -3.97,-17.66 -7.82,-42.41 -7.82,-70.4 0,-59.17 17.83,-130.73 93.37,-167.84 120.6,-59.8 600.48,160.8 805.59,255.32 l 98.09,43.89 80.69,31.81 12.05,-23.27 c -2.78,-1.76 -278.86,-183.49 -327.6,-222.34 -50.52,-40.37 -423.64,-208.82 -671.18,-150.21 l -15.9,5.88 c -19.44,7.96 -23.4,7.67 -29.15,-2.06 -13.11,-23.55 6.93,-66.54 23.11,-100.71 m 2100.68,-481.81 c 0,0 136.06,0.31 137.82,0.31 1.78,0 173.89,21.48 173.89,21.48 202.62,23.86 411.88,48.3 610.96,126.07 0,0 98.79,23.26 101.44,23.85 l 21.5,7.65 c 16.34,7.65 31.8,14.42 44.92,9.42 l 12.66,-12.08 -6.03,6.21 c 9.27,-4.72 10.75,-13.56 11.19,-16.79 l 0.13,-1.19 4.58,-14.43 -9.43,-3.83 c -28.28,-11.19 -62.57,-35.64 -92.76,-57.43 0,0 -39.04,-26.79 -39.17,-26.79 l -12.68,-10.6 c -27.81,-22.39 -54.04,-43.58 -54.04,-75.69 l 0.15,-5.3 -3.54,-3.82 c -22.51,-24.75 -37.68,-55.37 -53.44,-87.48 -20.18,-40.36 -40.94,-82.17 -77.46,-112.2 -163.74,-130.46 -357.51,-270.35 -563.96,-357.83 307.45,26.52 623.61,58.61 934.88,183.79 187.45,194.06 391.84,380.48 617.28,432.6 l 9.14,-24.43 c -73.05,-38.58 -122.68,-68.32 -195.42,-116.62 l -97.01,-79.23 c -53.92,-40.33 -108.1,-82.47 -144.02,-136.93 134.57,58.3 357.22,161.97 412.14,293.91 5.88,14.12 14.13,21.19 24.02,20.89 15.74,-0.58 23.71,-20.01 26.49,-27.98 l 1.62,-4.99 -2.35,-4.71 c -108.96,-235.01 -355.45,-360.18 -594.01,-481.23 0,0 -5.31,-2.34 -8.25,-4.12 -3.54,-5 -61.99,-87.47 -61.99,-87.47 -135.77,-194.08 -276.53,-393.14 -514.2,-474.71 30.19,-24.75 75.1,-25.35 117.36,-22.7 0,0 26.8,1.48 27.09,1.48 l 53.02,12.09 c 39.16,12.95 87.77,28.55 115.28,-20.34 l 6.19,-28.25 c 7.37,-30.65 14.74,-62.15 6.04,-91.31 l -1.02,-3.23 -2.52,-2.66 c -2.18,-2.06 -10.43,-8.82 -20.01,-5.31 -2.94,0.89 -9.86,5.02 -10.61,16.21 l -3.68,5.6 c 0,0 -1.48,1.77 -2.65,3.23 -30.03,13.24 -54.63,11.19 -78.05,-9.72 -48.29,-19.15 -60.37,-68.01 -73.02,-119.56 0,0 -18.56,-59.5 -19,-60.08 0,-3.25 -0.15,-6.47 -0.15,-9.44 0,-53.58 24.59,-103.93 34.01,-123.38 l 5.75,-14.73 9.27,-22.08 -50.49,16.78 -2.37,2.37 c -54.34,56.54 -73.18,123.08 -73.18,187.89 0,72.14 23.71,139.29 46.53,190.82 -107.63,-11.48 -211.31,37.39 -269.03,96.32 -58.61,59.48 -78.93,96.88 -65.82,121.92 14.87,28.55 64.05,22.37 108.68,14.41 0,0 12.21,-2.06 14.73,-2.34 91.58,-15.9 180.09,46.23 258.26,100.71 0,0 20.77,14.73 20.93,14.73 67.71,59.78 155.77,162.86 219.4,255.04 -28.87,-6.2 -64.2,-13.85 -64.2,-13.85 -229.43,-50.96 -466.66,-103.95 -711.96,-107.51 -97.49,14.75 -202.62,58.61 -281.26,117.23 l -6.92,5.3 10.17,41.53 14.42,-7.08 c 19.88,-9.41 37.11,-3.22 57.58,3.55 0,0 44.77,10.01 39.91,9.13 247.66,98.06 501.52,249.15 677.78,403.16 0,0 12.67,15.33 11.19,12.96 11.79,22.97 30.63,43.87 48.74,64.19 19.6,22.1 36.82,45.08 48.3,69.81 -387.41,-150.47 -749.95,-207.61 -1108.06,-172 -352.51,71.88 -682.05,101.63 -1066.22,123.7 -91.6,-7.65 -191.58,-64.78 -279.78,-115.14 0,0 -33.56,-19.14 -34,-19.14 0,-0.29 -22.54,-19.15 -22.54,-19.15 -22.54,-20.63 -45.94,-41.83 -79.67,-40.65 -21.36,-3.81 -39.89,-25.61 -54.48,-44.76 41.08,-24.14 88.5,-6.17 138.7,14.15 0,0 47.28,17.35 47.41,17.66 l 65.09,43.88 c 35.79,27.69 72.6,56.23 115.6,59.48 l 3.69,0.3 3.23,-1.46 c 10.6,-5.59 28.42,-5.59 45.8,-5.3 31.96,0 75.54,0 80.68,-43.59 l 2.65,-22.98 -21.05,9.4 c -90.12,41.86 -121.48,-9.98 -160.93,-75.38 -27.4,-45.65 -58.61,-97.17 -115.75,-114.83 l -20.02,-5.61 c -38.28,-11.47 -81.58,-24.43 -125.61,6.77 l -35.19,21.22 c -21.21,10.01 -45.36,21.2 -56.84,46.8 -10.75,14.74 -20.61,58.61 -7.07,74.82 l 11.78,13.85 c 0,0 4.87,-7.96 7.37,-12.07 8.09,7.93 16.19,15.9 16.19,15.9 17.22,15.58 34.9,31.21 44.47,54.18 273.74,356.93 743.76,306.58 1163.28,231.19 208.22,-44.79 403.89,-43.89 611.53,-42.43 m -32.99,886.17 -8.09,7.94 2.34,9.72 c 2.52,10.88 8.25,36.22 32.71,33.26 l 4.55,-0.56 26.49,-22.99 c 30.5,-25.62 61.86,-51.83 78.65,-94.23 2.05,-7.97 3.09,-15.01 3.09,-22.09 0,-27.98 -14.28,-52.13 -28.41,-75.68 -9.58,-16.79 -19.31,-34.16 -25.04,-55.67 556.47,366.65 1200.08,284.78 1822.96,205.85 0,0 21.78,-2.94 22.37,-2.94 239.43,-42.41 474.58,-108.96 572.94,-305.1 l -21.33,-14.44 c -66.73,73.93 -158.46,105.45 -221.47,118.41 -92.77,0.28 -185.7,18.85 -275.67,36.8 0,0 -134.43,24.46 -135.6,24.74 -38.44,9.14 -763.36,109.56 -1189.93,40.34 -121.33,-20.01 -246.94,-47.99 -344.56,-121.93 l -74.06,-27.08 -79.09,-29.46 h -2.94 c -49.76,3.25 -120.44,15.05 -161.08,81.58 -23.58,37.72 -4.58,78.05 12.2,113.39 22.54,47.71 33.29,75.68 -11.03,100.14 m -2690.25,467.67 c -9.13,17.37 -13.85,35.02 -19.59,52.99 -0.45,-7.06 -3.55,-13.26 -9.27,-16.48 -11.93,-6.19 -25.63,2.63 -30.19,5.6 -155.202,98.94 -259.015,294.79 -264.765,497.41 -23.711,123.67 -18.113,254.14 -12.961,379.89 l 4.582,198.58 18.836,136.78 c 11.477,91.29 23.707,185.39 43.598,274.62 58.008,274.19 155.93,560.74 300.1,878.05 0,0 88.33,145.62 89.21,146.66 110.45,147.25 249.9,220 394.65,204.83 57.85,-13.83 113.23,-41.68 166.08,-77.59 l 0.6,1.6 c 49.63,111.78 170.07,221.92 304.66,215.88 214.82,-12.22 315.56,-243.85 348.83,-343.1 19.14,-60.23 67.29,-108.36 113.82,-154.9 0,0 56.55,-59.92 56.71,-60.68 0.13,-0.14 18.11,-9.42 18.11,-9.42 18.11,-9.43 36.8,-18.69 51.52,-35.78 l 0.89,-0.89 0.44,-1.01 c 4.27,-7.36 6.04,-13.25 6.04,-18.27 0,-10.44 -7.08,-17.08 -13.1,-22.83 l -4.42,-4.55 -2.65,-0.76 c -13.69,-5.44 -25.32,-7.77 -34.77,-3.38 -27.97,4.58 -62.87,10.02 -89.08,28.86 -125.74,86.16 -198.33,173.92 -227.21,274.34 l -13.82,34.61 c 0,0 -4.87,13.25 -6.04,16.03 -37.71,85.41 -84.39,191.43 -201.6,199.97 -100.56,7.36 -158.58,-42.26 -220.13,-94.51 l -55.36,-44.92 c 95.4,-71.57 181.85,-166.4 257.25,-249.31 68.31,-75.08 127.23,-139.87 169.03,-159.76 l 19.59,-7.65 c 41.66,-15.77 69.06,-26.36 138.7,-36.67 55.22,-7.96 126.19,0.89 201.3,10.31 60.22,7.51 122.36,15.33 175.37,13.84 92.33,22.67 153.44,109.85 197.18,184.65 52.99,67.01 70.68,152.54 89.37,243.11 0,0 29.74,120.45 32.39,130.45 -4.11,8.56 -12.96,27.85 -13.69,30.34 0,0 -0.28,0.6 -0.44,0.73 -74.5,-2.94 -149.89,33.6 -198.64,96.61 -20.76,29.6 -27.68,61.41 -27.68,94.1 0,30.34 5.59,61.26 11.47,92.01 5.6,28.73 10.75,56.11 10.75,81.59 0,2.21 -0.13,4.42 -0.44,6.48 -4.4,-2.66 -8.67,-7.5 -15.3,-16.94 -8.41,-11.77 -17.83,-25.77 -30.79,-31.2 -49.63,-38.73 -109.69,-27.7 -157.83,-18.85 l -19.01,3.51 -2.65,1.77 c -60.53,45.81 -122.07,132.1 -122.07,218.83 0,1.75 0.15,3.52 0.15,5.14 -0.88,0.15 -1.76,0.44 -1.76,0.44 l -2.37,2.21 c -36.67,34.76 -63.45,89.99 -65.08,132.54 -0.74,3.98 -1.18,7.8 -1.18,11.03 0,10.31 3.54,17.08 10.61,20.04 -21.64,22.07 -39.47,49.32 -32.1,84.37 l 6.76,36.67 31.81,-60.38 c 12.82,-26.96 23.25,-44.48 41.83,-47.71 6.01,2.95 14.71,7.06 14.71,7.06 14.73,5.6 22.98,9.42 25.64,16.66 8.97,109.68 45.49,207.3 80.54,289.61 41.09,72.46 110.89,100.75 213.5,86.3 77.91,-15.02 117.21,-64.2 147.7,-115.89 2.06,-0.73 3.83,-1.61 4.72,-1.89 0.57,1.61 4.71,15.29 4.71,15.29 l 14.13,32.69 -3.39,-5 c 141.51,355.91 610.2,373.58 751.85,370.35 112.94,-14.15 274.48,-48.46 403.92,-131.5 10.3,-8.69 13.24,-18.55 13.24,-27.4 0,-7.65 -1.9,-14.42 -3.66,-19.88 0,0 -0.29,-3.1 -0.6,-5.6 12.95,1.93 28.56,3.99 28.56,3.99 30.35,3.37 59.06,6.63 85.86,21.93 l 26.64,15.17 -12.22,-49.34 -5.45,-2.78 c -76.11,-38.72 -159.18,-55.95 -239.57,-72.45 -96.3,-20.04 -195.69,-40.65 -284.64,-100.27 -137.67,-44.32 -227.94,-136.94 -323.34,-235.31 -70.68,-72.6 -143.74,-147.68 -239.58,-201 -64.51,-19.57 -126.35,8.24 -151.09,72 -3.68,49.79 31.36,80.83 62.14,108.24 l 25.77,23.26 8.53,-5.89 c 12.96,-9.57 8.56,-23.13 6.92,-27.53 l -0.72,-2.08 -2.51,-10.15 -6.34,-2.05 c -21.78,-7.08 -35.92,-34.16 -42.84,-82.18 v -6.32 c 0,-0.16 3.98,-3.99 24.28,-1.47 26.68,2.79 96.31,72.74 157.86,134.58 49.47,49.78 100.58,101.31 146.36,137.98 175.24,158.14 395.09,248.7 667.79,280.34 -344.42,135.92 -615.51,133.71 -825.47,-8.54 -142.84,-127.35 -239.89,-272.25 -288.76,-430.25 l -3.54,-11.78 c 0,0 -24.3,6.04 -25.18,6.32 -33.71,11.35 -34.16,69.08 -34.16,75.56 0.74,59.63 -44.77,118.81 -87.48,153.86 -20.46,17.23 -77.58,32.99 -111.02,-0.88 -48.59,-33.41 -78.93,-67.13 -79.37,-129.43 13.24,-66.1 -0.88,-146.52 -35.48,-200.1 l -1.76,-2.81 -2.81,-1.62 c -28.26,-15.45 -61.26,-31.23 -97.62,-20.17 l -0.6,0.3 c 23.56,-26.37 47.42,-39.33 76.57,-41.54 62.3,17.09 84.68,68.93 108.23,123.85 12.07,27.84 24.44,56.54 42.57,79.65 l 22.23,-13.25 c -23.71,-54.05 -30.34,-116.76 -34.02,-176.7 l -0.15,-3.09 -1.62,-2.65 c -26.51,-43.29 -70.07,-77.74 -119.13,-97.93 0.76,-20.9 13.12,-42.24 25.48,-62.72 0,0 9.72,-16.35 9.72,-16.5 19.89,-28.99 57.42,-57.12 100.12,-49.03 31.83,11.79 61.99,34.01 82.03,60.22 43.43,31.95 32.84,62.74 17.96,105.14 -12.81,36.09 -27.09,76.87 -0.29,120.18 l 7.52,11.48 c 18.56,28.57 43.87,67.86 84.81,55.65 l 20.01,-5.75 -43.87,-48.43 c -20.62,-24.15 -28.14,-47.28 -28.14,-70.67 0,-31.97 14.16,-63.92 29.75,-98.98 11.79,-26.49 23.87,-54.02 29.02,-81.58 l 14.28,-121.76 c 5.6,-77.01 11.35,-149.74 49.76,-215.72 1.33,-0.75 2.37,-1.63 2.37,-1.63 22.53,-14.7 47.86,-31.2 72.73,-28.71 0.17,2.95 0.32,5.75 0.32,5.75 l 1.61,32.38 c 0,0 35.92,-32.82 45.05,-41.22 12.39,8.97 45.51,33.72 45.51,33.72 l 10,7.05 12.67,-14.85 c 10.46,-11.79 26.21,-29.46 11.19,-54.94 -8.98,-24.72 -30.34,-23.71 -42.99,-22.23 1.46,-4.26 3.38,-9.26 3.38,-9.26 2.79,-20.77 4.12,-41.37 4.12,-62.01 0,-134.29 -54.03,-264.3 -102.04,-379.9 -63.17,-191.43 -260.04,-244.73 -465.91,-273.74 -257.08,10.46 -529.79,-127.07 -678.38,-340.88 l -176.26,-343.67 c -70.36,-140.47 -142.82,-285.67 -224.25,-430.72 -42.98,-102.83 -100.13,-199.74 -155.64,-293.38 -88.2,-149.31 -179.35,-303.65 -210.72,-481.8 0,0 -1.32,-55.38 -1.17,-57.44 -3.54,-77.15 25.48,-151.95 53.74,-223.82 0,0 32.09,-86.87 29.9,-83.05 l 9.86,-21.49 c 7.37,-22.67 16.64,-51.24 95.57,-67.74 89.23,-18.27 211.31,11.2 263.56,23.55 0,0 25.79,5.92 25.47,5.92 31.53,7.93 558.68,292.13 865.24,463.82 68.34,45.06 142.41,83.05 214.13,119.57 99.67,50.95 202.91,103.37 293.16,177.86 80.1,30.06 135.91,70.97 172.87,126.95 47.26,43.27 55.07,99.23 63.03,158.44 7.37,52.72 15.01,107.26 50.35,148.49 l 26.07,69.94 c 0,0 45.35,115.75 46.39,117.65 l 36.66,57.15 c 44.16,71.56 89.83,145.33 156.22,167.27 l 13.41,-21.8 c -98.22,-100.43 -139.44,-249.73 -179.05,-394.02 -33.44,-121.42 -68.03,-247.17 -137.24,-344.06 -56.56,-69.22 -116.46,-130.76 -180.53,-184.37 l -75.99,-42.4 c -75.68,-42.99 -153.86,-87.17 -217.92,-111.01 -220.87,-159.05 -474,-289.52 -647.17,-370.79 l -59.92,-22.37 c -49.19,-15.62 -104.56,-33.58 -127.39,-74.52 l -6.76,-35.64 c 0,0 -7.22,-35.34 -6.18,-31.51 -5.74,-45.94 -16.49,-78.91 -30.19,-106.61 111.32,11.77 256.21,56.25 328.66,78.94 l 15.9,4.72 c 80.41,25.03 293.91,91.87 471.79,181.69 360.76,179.65 664.1,467.67 925.76,878.19 0,0 25.48,74.51 25.63,75.39 36.51,115.09 52.7,254.52 66.99,377.2 l 3.7,30.03 v 6.93 c 0,94.07 9.55,191.27 19.27,285.22 9.43,94.09 19.29,190.69 19.29,284.78 0,15.01 -0.29,30.19 -0.88,45.19 -34.9,27.85 -64.65,67.9 -87.02,105.01 -7.81,-25.64 -18.56,-60.37 -18.71,-60.37 -0.45,-3.1 -0.59,-6.48 -0.59,-9.86 0,-13.27 3.54,-26.97 7.38,-41.26 3.95,-14.72 7.93,-30.18 7.93,-45.49 0,-8.09 -1.01,-16.21 -3.82,-24.3 l -7.37,-21.5 -14.86,16.95 c -46.53,52.85 -64.2,108.07 -64.2,163.58 0,94.39 50.79,189.94 97.78,278.01 27.53,51.55 52.72,99.98 68.46,146.22 -91.74,74.36 -163.45,190.99 -211.45,348.26 l 24.29,9.26 c 82.02,-183.18 266.68,-315.41 438.96,-314.23 8.54,0 15.9,3.69 21.5,10.74 7.65,9.73 11.48,24.59 11.48,41.82 0,8.69 -1.17,18.43 -2.95,27.85 -2.94,4.99 -4.11,9.99 -4.11,14.73 0,9.42 4.4,18.08 7.79,24.59 0,0 0.75,1.74 1.64,3.38 l -16.66,3.82 5.75,14.14 c 0.59,1.62 15.91,38.14 61.41,47.57 24,5 40.04,-5.31 50.81,-11.94 11.03,-6.93 11.19,-6.77 15.74,-2.5 l 19.6,-17.38 -20.64,-35.03 c -4.11,-12.83 -18.84,-17.55 -34.3,-22.39 -6.92,-2.08 -19.73,-6.04 -21.79,-9 -5.3,-12.35 -3.69,-30.17 -2.2,-48.88 3.38,-39.16 7.49,-87.75 -50.8,-110.56 l -6.2,-2.66 c -23.11,-10.02 -49.18,-21.21 -84.08,-18.43 l -67.59,13.27 c 0,0 -23.85,5.6 -34.89,8.26 -6.77,-12.08 -31.67,-55.98 -31.67,-55.98 -24.29,-46.22 -49.47,-93.95 -90.25,-127.52 -13.69,-16.91 -23.42,-65.81 -23.42,-80.25 0,-0.89 0.16,-1.62 0.16,-2.05 l -7.82,-34.03 c -4.26,-11.78 -6.19,-19.12 -6.19,-23.83 0,-3.1 2.95,-3.98 4.43,-5.31 12.23,8.99 45.36,33.73 45.36,33.73 l 3.09,1.45 17.36,5.89 c 20.77,7.8 52.13,19.74 73.49,-12.65 l 4.27,-6.32 c 0,0 -8.25,-15.33 -11.19,-21.05 18.55,-28.01 22.98,-58.17 25.48,-87.5 0,0 6.04,-43.71 6.17,-46.82 -0.45,-201.89 -19.14,-393.29 -38.88,-596.07 0,0 -16.48,-173.29 -16.63,-174.33 l -29.74,-163.01 c 0,0 -47.71,-281.17 -47.86,-282.05 -12.97,-61.84 -67.88,-91.3 -93.95,-102.2 -39.74,-52.42 -87.91,-98.35 -134.88,-142.83 0,0 -46.38,-44.75 -45.65,-43.9 -188.33,-218.21 -435.84,-399.33 -675.44,-574.26 L 2787,4789.15 c -177.86,-129.86 -323.08,-159.33 -417.02,-170.22 -69.64,-8.26 -140.17,-32.97 -214.67,-59.2 -139.02,-48.88 -282.28,-99.84 -430.72,-41.22 l -13.12,5.02 6.2,12.93 c 17.82,36.54 58.03,103.96 75.39,118.99 l 32.84,11.78 c 21.81,4.42 37.11,8.25 39.17,22.09 l 8.68,28.27 c 3.68,11.19 8.41,27.08 10.16,37.11 -10.16,-4.12 -29.15,-12.38 -29.15,-12.38 -80.55,-35.92 -247.98,-110.14 -363.42,-113.09 l -19.13,0.59 c -57.72,1.48 -123.25,3.25 -169.33,47.71 -43.75,52.72 -130.62,172.88 -178.03,288.63 m 2391.03,3489.89 2.07,12.36 c 14.58,82.45 57.57,143.86 128.25,182.01 l 0.73,0.28 c 122.52,55.67 260.35,59.78 378.29,11.64 h 0.15 c 0.73,-0.29 1.48,-0.44 2.36,-0.73 l -7.64,-25.04 c -113.11,22.39 -228.7,-2.52 -324.54,-69.35 l -35.95,-41.37 c -31.51,-40.5 -67.29,-86.75 -131.49,-72.32 z m 10.17,-34.33 9.71,-5.72 10.02,-2.65 c 8.84,-1.48 27.53,-4.72 28.57,-25.79 l 0.29,-12.65 -31.36,-2.21 c 0,0 -35.94,-2.22 -38.88,-1.62 -85.25,17.23 -157.71,-8.98 -217.64,-80.09 l -12.36,-14.45 c -7.96,-11.34 -17.52,-25.04 -35.21,-25.92 l -10.15,-0.58 -2.94,9.87 c -12.07,38.56 10.46,70.37 28.27,96.16 0,0 10.74,15.74 12.22,17.79 55.8,59.78 129.14,54.94 199.82,50.08 z m -495.49,-10.15 -1.04,26.05 c 44.32,6.64 74.66,-24.27 96.75,-46.81 l 6.91,-6.93 4.13,-2.93 -2.37,-92.62 c -3.82,-54.94 -7.49,-107.35 14.29,-156.83 23.13,-35.92 83.35,-49.33 126.05,-41.24 l 10.15,0.32 6.04,-11.51 c 2.95,-5.15 8.1,-14.58 2.66,-26.49 l -2.79,-3.82 -21.07,-16.06 c -13.25,-11.04 -27.98,-23.55 -47.42,-25.33 -48.59,-14 -98.94,7.82 -150.02,65.98 -23.27,33.13 -31.39,69.03 -31.39,106.14 0,52.28 16.79,106.91 32.55,157.14 0,0 4.12,13.4 6.04,19 -6.19,25.16 -22.53,54.02 -49.47,55.94 m -34.17,-2467.03 22.54,12.37 c 1.01,-1.17 1.32,-2.8 2.34,-3.97 v -0.16 c 32.55,-41.89 50.36,-95.78 50.36,-149.38 0,-33.86 -6.77,-67.43 -20.62,-97.47 l -2.49,-3.54 -14.29,-13.24 c -12.51,-13.27 -33.41,-35.06 -62.15,-18.27 l -14.85,8.25 12.21,12.07 c 55.53,55.07 64.51,140.19 26.95,253.34 m 221.75,47.4 3.1,-4.83 -1.33,-5.6 c -6.04,-24.16 -29.44,-25.92 -42.11,-26.96 l -21.5,-1.89 -1.47,12.8 c -8.25,69.19 -34.46,141.51 -84.22,229.26 0,0 -13.11,27.4 -14.73,30.48 -11.92,-5.15 -33.41,-19.57 -63.76,-76.72 l -11.94,-11.77 c -21.78,-21.93 -42.55,-42.57 -80.54,-32.99 l -17.36,3.98 9.26,15.3 c 23.27,39.32 46.97,82.31 54.78,135.77 l 0.89,4.71 6.76,6.48 c 6.35,6.35 14.29,14.15 25.63,13.11 3.24,-0.29 5.89,-3.82 8.54,-5.6 70.09,27.11 123.53,85.26 171.55,148.13 L 3103,6398.07 c 0,0 -225,-105.42 -234.28,-109.69 -4.55,-10.46 -39.45,-89.1 -39.45,-89.1 -18.56,-36.07 -37.56,-73.18 -48.02,-115.89 -2.78,-11.03 -3.82,-22.82 -3.82,-34.74 0,-34.29 9.28,-71.28 18.7,-107.18 8.99,-35.28 18.25,-72.69 18.25,-107.73 0,-49.47 -18.25,-95.12 -82,-127.23 -211.59,-114.84 -437.48,-184.07 -655.72,-250.62 0,0 -284.77,-90.69 -284.93,-91 -87.15,-29.45 -173.89,-86.29 -264.61,-173.76 l -21.05,15.02 c 75.1,161.68 270.8,258.28 434.39,324.26 63.18,83.93 112.94,179.35 161.24,272.12 67.73,130.98 137.98,266.45 246.05,368.64 l 16.65,28.26 c 27.54,45.37 56.09,92.49 59.5,142.09 l 1.16,15.46 31.2,-7.5 2.66,-3.24 c 24.45,-27.83 11.5,-62.57 0,-93.36 0,0 -7.93,-22.97 -7.36,-19.56 -0.15,-11.51 -18.68,-44.79 -91.73,-171.71 -63.32,-110.12 -142.1,-247 -167.86,-311.51 l -20.32,-49.47 c -15.32,-34.46 -32.25,-73.05 -33,-108.08 28.86,10.6 192.91,70.97 192.91,70.97 132.08,46.52 268.44,95.11 400.07,161.68 -14.42,51.53 -21.06,103.46 -26.65,154.39 0,0 -19.13,126.62 -19.13,126.94 0,0 0.86,24.15 1.17,24.88 l 51.53,87.46 c 24.59,38.15 49.91,77.61 64.65,116.49 l 2.21,5.72 5.9,2.21 c 65.5,21.95 135.74,49.47 207.62,80.1 l 5.28,40.65 1.77,5.32 1.77,2.64 c 36.96,52.13 74.06,106.02 95.12,166.98 -26.05,-28.14 -54.32,-59.06 -54.32,-59.06 -42.7,-51.08 -87.33,-103.8 -149.03,-142.81 -13.54,-25.49 -32.69,-49.18 -62.43,-73.78 h -21.79 l -15.46,18.24 -1.76,0.6 5.73,23.42 c 15.61,62.87 32.99,134 32.99,198.04 0,3.26 0,6.48 -0.16,9.73 l -0.13,6.33 c 0,0 73.62,59.2 86.59,69.79 -2.09,4.72 -5.76,12.81 -5.76,12.81 l 29.91,213.53 3.82,28.85 c 0,0 22.07,-25.63 24.88,-28.85 55.36,0.28 78.33,-53.33 95.28,-92.78 0,0 2.33,-5 4.41,-9.58 8.83,6.79 19.29,15.02 19.29,15.02 13.4,13.4 28.41,28.72 53.74,30.18 l 27.97,1.93 c 0,0 -22.06,-30.04 -28.85,-39.32 3.98,-1.02 22.24,-6.47 22.24,-6.47 -0.75,-6.04 -3.1,-24.6 -9.58,-45.5 8.26,4.55 17.08,8.67 28.42,8.25 l 18.56,-0.6 -6.77,-17.39 c -10.46,-25.91 -14.44,-52.56 -18.26,-78.32 -5.76,-39.77 -13.41,-80.26 -43.44,-115.73 0,-1.49 0.13,-3.1 0.13,-4.71 0,-50.23 -38.12,-76.72 -72.14,-100.43 l -17.82,-14.88 c 45.65,20.32 92.05,41.66 138.26,64.48 l 3.83,2.09 3.98,-0.6 c 4.42,-0.74 25.92,-5 30.05,-22.1 0.29,-1.45 0.44,-2.94 0.44,-4.42 0,-11.92 -12.82,-17.36 -19.14,-20.3 0,0 -9.43,-5.16 -9.43,-5.31 -0.59,-1.33 -2.36,-6.92 -2.36,-6.92 l -7.94,-3.83 c 6.92,-3.53 11.32,-10.17 11.92,-16.94 l 0.44,-3.38 -1.33,-3.1 c -23.55,-54.91 -53.45,-110.58 -105.13,-151.51 20.61,-47.85 48.3,-94.98 79.94,-138.57 44.63,27.85 75.7,68.33 104.41,108.54 28.42,39.45 57.43,80.23 100.43,108.52 l 25.19,13.25 c 48.58,25.76 103.52,55.22 135.89,45.35 l 32.84,-9.86 -31.07,-14.57 C 3443.9,6332.25 3382.92,6238 3318.43,6138.32 c 0,0 -61.55,-91.6 -59.8,-87.89 -4.55,-14.74 -17.07,-23.72 -27.97,-31.52 -18.4,-13.12 -19.58,-15.9 -12.52,-26.97 m 391.55,767.62 4.4,-3.09 0.88,-5.29 c 2.66,-17.53 -2.05,-36.37 -12.21,-49.34 l -30.63,-17.07 -1.16,-1.92 -6.35,3.54 c -23.71,13.56 -39.61,40.05 -52.26,61.26 0,0 -3.54,5.44 -4.42,7.65 -23.27,60.22 -11.5,123.11 32.84,176.41 l 26.34,32.09 -3.08,-41.22 c -4.7,-56.99 -3.38,-126.63 45.65,-163.02 m 649.21,950.36 c -11.92,-1.48 -17.07,5 -18.99,7.82 -5.16,8.81 -1.02,19.57 4.26,28.12 0.16,2.34 0.32,6.9 0.32,7.34 -0.6,0 -17.39,0.76 -17.39,0.76 l -28.86,2.94 0.73,-0.88 -2.94,2.05 c -13.69,9.28 -36.51,28.86 -38.73,53.3 -0.72,9.13 1.04,22.84 14.89,36.09 l 6.61,14.86 25.32,-36.8 c 0,0 7.24,-14.57 8.85,-16.65 12.81,-20.02 15.75,-18.68 31.96,-11.33 14.42,6.78 36.95,17.08 70.24,7.5 l 3.51,-1.61 1.33,-0.89 c 15.03,-8.82 32.11,-18.84 35.34,-40.64 1.19,-9.14 -1.61,-17.81 -7.94,-24.73 -9.87,-10.9 -27.85,-16.65 -47.85,-15.62 l -26.65,-6.19 c 0,0 -14.14,-5.44 -14.01,-5.44 m -216.3,44.17 9.13,7.96 8.1,-2.65 c 4.13,-1.33 13.99,-4.56 16.78,-34.31 10.46,-23.25 32.11,-23.99 63.62,-22.09 21.79,18.11 50.64,9.74 66.26,-2.5 0,0 5.31,-15.01 6.33,-18.11 4.7,1.33 12.51,3.67 12.51,3.67 l 2.81,4.27 29.59,-20.61 6.48,-7.21 -5.02,-10.15 c -8.09,-16.5 -26.33,-20.32 -39.9,-22.82 l -13.4,-3.41 -7.94,0.44 c -20.03,1.19 -49.62,2.97 -68.33,27.56 l -11.04,3.07 c -6.19,0 -11.94,-1.9 -14.73,-5.15 l -8.97,-6.61 -7.37,1.46 c -19.28,3.98 -40.05,44.47 -46.82,65.23 -6.48,19.74 -5.9,33.57 1.91,41.96 m 96.15,510.37 c -59.62,26.53 -127.51,56.27 -182.29,22.09 l -15.46,20.62 c 0.44,0.73 1.17,1.04 1.76,1.48 0.29,0.44 0.74,0.44 0.89,0.57 44.76,37.27 128.54,33.13 153.57,30.92 l 42.7,-11.19 c 49.79,-14.71 133.42,-39.6 179.51,-30.48 l 19.73,2.06 -11.34,-42.26 c -4.56,-23.84 -12.52,-58.61 -54.63,-60.35 -3.98,-2.22 -14,-7.97 -14,-7.97 0,0 -22.67,-15 -22.82,-15 0,0 -3.38,-14.14 -3.38,-14.73 0,0 0,-3.68 0,-6.04 0,-12.81 -1.75,-35.95 -16.93,-45.94 -0.43,-0.3 -0.88,-0.3 -1.04,-0.44 14.58,-4.42 28.43,-11.06 34.75,-25.04 l 0.44,-1.32 0.32,-1.33 c 2.64,-10.9 -1.78,-18.12 -4.88,-21.36 -11.34,-12.65 -34.44,-10.31 -55.06,-7.94 l -19.88,1.61 -2.95,7.08 c -3.24,6.49 -11.05,8.38 -27.53,10.88 -15.76,2.36 -35.33,5.62 -47.28,21.65 l -2.05,8.12 1.61,8.53 c 0.6,4.56 2.65,17.97 18.71,20.17 l 10.59,1.46 c 0,0 3.98,-10.74 4.14,-11.48 16.78,-13.55 33.85,-19.28 51.82,-15.74 0,0 -4.12,-3.99 -7.22,-6.79 0.6,-1.46 0.75,-3.23 2.37,-4.12 l 7.81,16.35 -1.2,0.6 -2.05,2.2 c -8.1,9.72 -10.46,21.64 -10.46,33.87 0,8.68 1.32,17.82 2.36,26.49 0,0 0.29,4.42 0.6,7.68 -23.86,-5.76 -77.75,-18.28 -77.75,-18.28 l -102.36,-22.37 22.54,48.87 9.72,-1.16 c 24.89,-3.11 50.37,8.83 77.17,21.48 31.49,14.58 64.2,28.58 100.27,22.38 2.21,3.7 4.71,6.92 7.81,9.9 -20.04,3.66 -42.56,12.79 -68.63,24.27 m 471.34,529.23 17.99,-43.6 0.13,-2.22 c 0.15,-3.22 0.15,-6.16 0.15,-9.12 0,-116.33 -83.04,-199.09 -164.47,-240.31 -0.88,-13.68 -14.29,-213.81 -14.29,-213.81 l -6.47,-75.23 -9.74,-32.11 -7.81,-24.45 c -6.76,-80.53 -9.55,-153.71 -9.55,-212.63 0,-67.43 3.54,-115.89 8.23,-134.57 1.32,-5.16 2.08,-10.6 2.08,-15.77 0,-24.88 -14.6,-46.97 -30.79,-51.37 -11.77,-3.26 -22.38,3.07 -25.91,15.46 -10.31,35.77 -31.52,192.31 -31.52,317.47 0,25.63 0.89,49.62 2.96,71.11 -2.65,12.68 -3.82,24.16 -3.82,34.61 0,30.03 9.11,53.3 18.68,77.73 10.47,26.21 21.06,53.18 21.06,92.63 0,8.99 -0.44,18.56 -1.61,28.85 l 3.23,61.7 c 0,0 2.64,31.81 3.84,48.75 -90.27,-10.88 -175.38,8.09 -257.55,27.54 -12.08,2.8 -24,5.58 -35.79,8.39 l 8.7,-6.19 -0.16,-5.59 c -2.05,-115.89 -116.45,-143.7 -208.35,-166.08 0,0 -46.37,-12.97 -63.9,-17.67 0.87,-3.39 4.13,-7.08 4.13,-10.18 0,-13.68 -8.54,-25.32 -15.04,-34.01 l -11.63,-22.54 -2.5,-7.5 -1.9,-1.48 c -73.63,-64.35 -178.76,-88.78 -282,-65.53 -0.59,-0.12 -2.06,-1.45 -2.06,-2.05 l 0.3,-0.89 9.57,-2.78 18.11,-5.75 6.19,-1.48 c 0,0 0.44,-10.3 0.44,-10.89 0,-19.15 -13.26,-35.2 -30.93,-36.82 h -3.96 l -14.73,6.48 c -15.62,6.04 -38.15,15.02 -38.15,44.48 0,0.28 0.16,0.72 0.16,1.17 -1.33,0 -16.35,2.05 -22.69,2.81 -5.88,-6.2 -7.21,-14.16 -7.21,-27.25 v -2.8 c 0,0 -2.21,-26.95 -3.67,-30.33 -5.91,-10.17 -8.69,-18.71 -8.69,-26.35 0,-2.5 0.44,-5 1.04,-7.38 5.44,-16.93 31.2,-28.57 56.08,-39.91 24.15,-10.87 48.9,-22.23 61.42,-40.78 l 8.24,-4.56 -25.19,-27.4 -35.78,5.31 -12.07,4.42 -10.75,1.34 -35.94,29.87 c -44.46,35.49 -93.79,75.83 -95.41,138.71 -2.36,-1.02 -3.82,-1.62 -7.8,-6.33 -7.5,-8.38 -19.88,-22.82 -41.82,-17.38 l -13.69,3.4 4.42,13.54 c 0,0 13.38,40.65 15.9,44.76 63.03,77.75 155.65,63.19 237.37,50.37 l 40.49,-5.89 c 57.72,-2.22 108.81,48.45 150.34,88.94 0,0 3.09,3.07 5.88,5.73 -25.61,-5.16 -49.32,3.85 -70.52,13.27 l -36.23,13.25 -13.11,4.55 8.25,33.28 13.11,-3.67 c 141.81,-41.25 294.79,12.65 411.56,143.26 -29.45,5.32 -58.76,9.14 -88.34,10.18 l -3.7,25.48 c 77.19,25 158.3,15.89 236.79,6.77 116.48,-13.56 226.77,-25.79 318.05,70.81 1.34,5.15 6.48,29.74 6.48,63.02 0,32.41 -5.3,70.24 -25.31,98.65 -17.24,24.75 -43.88,39.62 -79.09,43.6 -63.44,7.36 -130.61,-10.75 -206.57,-50.36 1.45,-0.16 2.34,-0.72 3.95,-0.72 26.08,-2.22 61.57,-5.32 64.51,-55.96 l 0.14,-4.14 -2.35,-3.38 c -10.17,-16.49 -26.2,-12.23 -33.12,-10.45 l -4.72,1.16 2.5,0.89 -11.94,-0.74 -34.59,12.52 c -29.14,9.72 -51.53,17.96 -64.93,26.65 -2.66,0 -60.82,1.93 -60.82,1.93 l -60.08,2.21 -3.67,24.87 c 31.06,13.7 58.45,13.1 85.1,12.82 0,0 35.49,3.25 51.11,4.57 0,0.13 -0.45,1.47 -0.45,1.47 v 4.7 l -1.03,9.73 2.64,3.52 c 95.12,119.73 255.63,99.85 400.82,64.51 51.38,-17.54 68.03,-61.7 83.77,-104.84 m 587.98,-830.79 c 1.61,2.49 5.44,7.21 20.32,5.75 l 108.68,4.4 c 57.12,3.39 111.02,6.48 183.17,0.75 l 9.43,-1.19 18.4,-67.3 -16.5,-0.58 c -94.39,-3.98 -149.74,6.64 -219.97,20.02 l -89.69,15.9 c -6.19,0 -11.19,2.52 -14.43,8.25 l -3.96,7.23 z m 194.82,599.17 c 52.11,-25.35 82.31,-60.82 114.4,-97.77 l 77.75,-80.26 -19.72,-89.67 -166.27,152.98 -1.01,1.63 c -13.25,23.26 -15.02,41.53 -16.35,59.04 l -6.92,37.84 -5.31,27.69 z m 293.91,-271.84 8.82,14.28 75.25,-77.44 c 6.62,-6.77 8.83,-12.97 8.83,-18.55 0,-8.7 -5.44,-15.18 -7.94,-17.96 0,0 -0.89,-1.33 -1.77,-2.37 0.57,-0.6 1.02,-1.32 1.02,-1.32 l -15.46,-20.02 -39.01,24.15 c -17.38,12.2 -37.4,25.91 -51.39,27.82 l -19.73,2.94 z m 140.47,-408.91 -48.14,15.45 c -7.52,2.38 -51.71,1.78 -88.66,0 -6.04,-1.45 -19.44,-4.11 -29,4.72 -10.74,9.73 -8.55,25.03 -6.35,38.72 l 1.05,17.25 -0.3,13.4 7.22,3.24 c 55.8,23.99 96,-19.45 122.65,-48.02 z m 214.26,690.01 -5.16,-45.64 -18.71,15.75 c -36.07,30.05 -30.47,78.48 -26.49,113.82 l 1.02,10.46 2.36,19.89 17.23,-9.72 c 40.78,-22.97 34.14,-71.87 29.75,-104.56 m -54.78,513.76 c 2.64,41.82 4.7,52.7 17.07,54.92 11.34,2.08 16.05,-8.67 17.66,-12.08 l 3.1,-5.44 0.29,-1.32 c 18.84,-88.64 19.29,-197.17 19.59,-284.63 l 0.14,-21.81 -2.79,-12.52 -30.03,-1.01 -27.25,0.73 -8.4,-0.28 -0.44,12.2 c -3.97,82.63 0,176.7 11.06,271.24 m 215.42,-1147.37 0.73,33.27 21.8,-23.4 c 7.34,-7.8 18.25,-7.07 51.25,-3.68 l 7.2,0.72 c 20.77,2.08 35.18,-1.77 44.48,-11.32 11.63,-12.39 10.44,-29.74 8.38,-43.74 l -1.62,-10.75 -10.9,-0.44 c -36.67,-1.17 -88.92,-0.6 -119.71,18.71 l -2.65,11.76 z m 48.59,290.83 c 5.74,13.69 12.8,30.91 30.91,44.01 l 8.54,6.47 46.55,-41.82 8.54,-12.07 -30.5,-24.59 c -12.07,-11.48 -27.09,-26.05 -46.23,-20.62 l 2.8,-3.22 -17.67,0.73 -18.25,0.44 -3.41,24.88 c 9.45,4.14 13.28,12.07 18.72,25.79 m 173.76,202.47 c 51.97,61.38 114.11,107.63 174.48,152.23 l 82.31,63.47 19.6,-16.62 c -35.06,-59.37 -83.35,-110.17 -130.17,-159.47 l -99.54,-111.34 -53.76,63.16 z m 668.96,1460.26 H 680.883 C 304.949,9891.28 0,9586.46 0,9210.25 V 680.891 C 0,304.813 304.949,0 680.883,0 H 7093.48 c 375.91,0 680.72,304.813 680.72,680.891 V 9210.25 c 0,376.21 -304.81,681.03 -680.72,681.03" style="fill:#3c52a2;fill-opacity:1;fill-rule:nonzero;stroke:none" id="path88"/>
      <path d="m 6439.97,7415.28 -54.62,-31.23 c 0,0 -163.01,-89.96 -231.33,-127.79 93.64,9.57 178.17,51.81 259.59,94.95 0,0 52.13,27.1 58.92,30.63 4.4,6.04 7.21,11.95 7.21,16.07 0,1.16 -0.16,2.04 -0.31,2.93 -1.61,5.59 -8.98,9.42 -15.9,12.07 -14.14,6.65 -16.2,5.75 -23.56,2.37" style="fill:#3c52a2;fill-opacity:1;fill-rule:nonzero;stroke:none" id="path90"/>
      <path d="m 6101.45,7315.74 -3.69,0.29 -2.94,2.05 c -9.86,6.79 -20.77,14.29 -19.59,26.37 1.19,11.48 12.23,16.79 24.3,21.78 l 64.2,26.36 c 53.9,23.87 109.4,48.3 172.44,40.21 4.99,3.67 21.93,15.45 32.24,22.67 -5,9.44 -10.31,20.19 -10.31,20.19 -3.98,10.3 -8.53,23.71 -13.97,26.05 0,0 -8.56,-0.88 -8.7,-0.88 l -95.27,-41.54 c -64.51,-29.88 -131.05,-60.79 -205.42,-71.41 l -39.91,-5.73 29.03,28.11 c 34.45,33.44 81.56,62.88 125.73,86.14 -123.97,-9.99 -248.1,5.91 -368.56,24.3 -72.01,11.2 -146.23,21.34 -220.14,26.52 23.42,-23.57 55.51,-55.97 55.51,-55.97 39.9,-37.68 43.75,-41.66 44.47,-46.38 0,0 2.95,-8.4 2.95,-9.7 71.12,-86.3 215.57,-223.83 391.39,-179.96 0,0 4.12,-0.13 7.97,-0.29 4.54,2.95 50.8,35.5 92.75,64.65 -17.67,-2.66 -36.52,-4.71 -54.48,-3.83" style="fill:#3c52a2;fill-opacity:1;fill-rule:nonzero;stroke:none" id="path92"/>
    </g>
  </g>
</svg>
