<?xml version="1.0" encoding="utf-8"?>
<svg viewBox="42.926 41.717 411.729 418.38" xmlns="http://www.w3.org/2000/svg">
  <rect x="42.926" y="41.113" width="414.752" height="418.984" style="stroke: rgb(0, 0, 0); fill: rgb(255, 255, 255);"/>
  <g transform="matrix(0.1, 0, 0, -0.1, 0, 500)" fill="#000000" stroke="none">
    <path d="M2340 4493 c-114 -11 -269 -37 -348 -58 -254 -68 -505 -192 -717 -354 -85 -64 -256 -232 -328 -321 -305 -378 -462 -847 -444 -1330 17 -449 174 -867 452 -1199 394 -472 945 -731 1554 -731 503 0 1001 200 1364 549 451 434 676 1028 617 1632 -45 459 -231 870 -540 1193 -337 352 -776 569 -1249 616 -96 9 -281 11 -361 3z m351 -123 c333 -34 668 -165 939 -369 167 -125 349 -323 464 -505 216 -340 320 -791 275 -1194 -40 -364 -192 -724 -424 -1002 -376 -451 -930 -699 -1510 -677 -477 18 -889 191 -1228 517 -126 120 -200 209 -281 333 -387 593 -407 1367 -52 1971 186 315 462 575 778 733 227 113 426 169 698 196 79 8 244 6 341 -3z"/>
    <path d="M3497 3079 c-95 -22 -198 -104 -231 -184 -44 -105 -25 -215 52 -297 48 -51 112 -89 256 -148 128 -53 174 -120 147 -210 -38 -128 -233 -158 -414 -63 -28 15 -56 29 -60 31 -4 2 -6 -38 -5 -89 l3 -93 60 -18 c229 -70 441 -36 555 89 104 113 108 275 9 387 -46 52 -91 79 -214 132 -167 70 -210 111 -202 193 9 89 76 136 192 134 75 -1 139 -20 196 -58 20 -13 40 -21 43 -18 12 12 6 160 -7 171 -7 6 -46 20 -87 31 -79 22 -221 27 -293 10z"/>
    <path d="M1930 2535 c0 -357 3 -545 10 -545 7 0 10 188 10 545 0 357 -3 545 -10 545 -7 0 -10 -188 -10 -545z"/>
    <path d="M3020 2535 c0 -357 3 -545 10 -545 7 0 10 188 10 545 0 357 -3 545 -10 545 -7 0 -10 -188 -10 -545z"/>
    <path d="M1097 3063 c-4 -3 -7 -244 -7 -535 l0 -528 305 0 304 0 41 69 c22 38 40 72 40 75 0 3 -110 6 -245 6 l-245 0 0 165 0 165 185 0 185 0 0 75 0 75 -185 0 -185 0 0 140 0 140 213 2 212 3 0 75 0 75 -306 3 c-168 1 -308 -1 -312 -5z"/>
    <path d="M2158 3064 c-5 -4 -8 -245 -8 -536 l0 -528 100 0 100 0 2 218 3 217 125 6 c116 6 186 20 243 51 40 21 100 84 125 132 23 44 27 64 27 136 0 76 -3 91 -30 139 -37 66 -92 114 -164 143 -50 19 -80 22 -286 26 -126 2 -233 1 -237 -4z m395 -155 c22 -6 55 -25 74 -43 30 -27 36 -41 41 -84 6 -65 -1 -93 -34 -132 -36 -42 -73 -59 -142 -66 -56 -6 -59 -8 -97 -60 -21 -30 -40 -54 -42 -54 -2 0 -3 101 -3 225 l0 225 83 0 c45 0 99 -5 120 -11z"/>
  </g>
</svg>