<?xml version="1.0" encoding="UTF-8" standalone="no"?>
<!-- Created with Inkscape (http://www.inkscape.org/) -->

<svg
   version="1.1"
   id="svg2"
   xml:space="preserve"
   width="2666.6667"
   height="2666.6667"
   viewBox="0 0 2666.6667 2666.6667"
   sodipodi:docname="28052021-04.eps"
   xmlns:inkscape="http://www.inkscape.org/namespaces/inkscape"
   xmlns:sodipodi="http://sodipodi.sourceforge.net/DTD/sodipodi-0.dtd"
   xmlns="http://www.w3.org/2000/svg"
   xmlns:svg="http://www.w3.org/2000/svg"><defs
     id="defs6" /><sodipodi:namedview
     id="namedview4"
     pagecolor="#ffffff"
     bordercolor="#666666"
     borderopacity="1.0"
     inkscape:pageshadow="2"
     inkscape:pageopacity="0.0"
     inkscape:pagecheckerboard="0" /><g
     id="g8"
     inkscape:groupmode="layer"
     inkscape:label="ink_ext_XXXXXX"
     transform="matrix(1.3333333,0,0,-1.3333333,0,2666.6667)"><g
       id="g10"
       transform="scale(0.1)"><path
         d="M 20000,0 H 0 V 20000 H 20000 V 0"
         style="fill:#f4f4f4;fill-opacity:1;fill-rule:nonzero;stroke:none"
         id="path12" /><path
         d="m 7709.29,9253.4 c 1107.3,-1107.3 2835.31,-1224.6 4074.21,-352 -4.4,289.7 -116.5,578 -336.8,798.8 -917.2,-761.2 -2284.46,-712.3 -3143.68,146.9 -911.23,911.2 -911.23,2393.9 0,3305.2 911.23,911.2 2393.88,911.2 3305.18,0 100.3,-100.3 190.5,-208.7 270,-323.7 l 323.7,323.7 2306.5,2306.4 v -532.9 l 839.6,-839.6 v 2794.7 h -2794.7 l 839.6,-839.6 h 510.5 l -2018,-2018.1 c -1244.5,953.1 -3038.13,860.8 -4176.11,-277.2 -1238.62,-1238.6 -1238.62,-3254 0,-4492.6"
         style="fill:#43adcd;fill-opacity:1;fill-rule:nonzero;stroke:none"
         id="path14" /><path
         d="m 12525.9,10993 c -1108.9,1108.8 -2833.69,1225.8 -4072.75,351.4 4.89,-289.1 117.06,-576.8 337.09,-797 917.97,762.2 2282.46,713.3 3142.86,-147.2 912.5,-912.5 912.5,-2392 0,-3304.5 -912.5,-912.5 -2391.97,-912.5 -3304.46,0 -101.36,101.4 -191.39,209.8 -270.23,323.6 L 7758.59,6819.4 6520.42,5581.3 5711.73,6390 l -593.74,-593.8 808.7,-808.7 -1274.73,-1274.7 593.73,-593.7 1274.73,1274.7 808.69,-808.7 593.74,593.7 -808.7,808.7 1238.17,1238.2 c 1244.81,-954.3 3034.28,-861.9 4173.58,277.3 1239.8,1239.9 1239.8,3250.1 0,4490"
         style="fill:#ed127c;fill-opacity:1;fill-rule:nonzero;stroke:none"
         id="path16" /></g></g></svg>
